<?xml version="1.0" encoding="utf-8"?>
<svg version="1.1" xmlns:xlink="http://www.w3.org/1999/xlink" width="50px" height="50px" xmlns="http://www.w3.org/2000/svg">
  <defs>
    <mask fill="white" id="clip10">
      <path d="M 71 692  C 57.125 692  46 680.875  46 667  L 46 667  C 46 653.125  57.125 642  71 642  L 71 642  C 84.875 642  96 653.125  96 667  L 96 667  C 96 680.875  84.875 692  71 692  " fill-rule="evenodd" />
    </mask>
  </defs>
  <g transform="matrix(1 0 0 1 -46 -642 )">
    <path d="M 46 642  L 96 642  L 96 692  L 46 692  L 46 642  " fill-rule="nonzero" fill="#cccccc" stroke="none" mask="url(#clip10)" />
    <path d="M 50 646  L 92 646  L 92 688  L 50 688  L 50 646  " fill-rule="nonzero" fill="#ffffff" stroke="none" mask="url(#clip10)" />
    <path d="M 75.75 657  C 73.65 657  72 655.35  72 653.25  C 72 651.15  73.65 649.5  75.75 649.5  C 77.85 649.5  79.5 651.15  79.5 653.25  C 79.5 655.35  77.85 657  75.75 657  " fill-rule="nonzero" fill="#cccccc" stroke="none" mask="url(#clip10)" />
    <path d="M 52 687  L 52 665.55  L 61.75 655.8  L 75.4 663.6  L 83.2 661.65  L 91 663.6  L 91 687  L 52 687  " fill-rule="nonzero" fill="#169bd5" stroke="none" mask="url(#clip10)" />
  </g>
</svg>