<?xml version="1.0" encoding="utf-8"?>
<svg version="1.1" xmlns:xlink="http://www.w3.org/1999/xlink" width="23px" height="25px" xmlns="http://www.w3.org/2000/svg">
  <g transform="matrix(1 0 0 1 -1337 -880 )">
    <path d="M 22.421875 11.0558408215661  C 22.8072916666667 11.4302524604193  23 11.9116388532306  23 12.5  C 23 13.0776636713736  22.8072916666667 13.5643988018828  22.421875 13.9602053915276  L 12.25 24.4062901155327  C 11.84375 24.8020967051776  11.3697916666667 25  10.828125 25  C 10.296875 25  9.828125 24.8020967051776  9.421875 24.4062901155327  L 8.25 23.2028241335045  C 7.85416666666667 22.7963200684638  7.65625 22.3095849379546  7.65625 21.7426187419769  C 7.65625 21.1756525459991  7.85416666666667 20.6889174154899  8.25 20.2824133504493  L 12.828125 15.5808729139923  L 1.828125 15.5808729139923  C 1.28645833333333 15.5808729139923  0.846354166666667 15.3802952503209  0.5078125 14.9791399229782  C 0.169270833333333 14.5779845956354  0 14.0939238339752  0 13.5269576379974  L 0 11.4730423620026  C 0 10.9060761660248  0.169270833333333 10.4220154043646  0.5078125 10.0208600770218  C 0.846354166666667 9.61970474967907  1.28645833333333 9.4191270860077  1.828125 9.4191270860077  L 12.828125 9.4191270860077  L 8.25 4.701540436457  C 7.85416666666667 4.31643132220796  7.65625 3.83504492939666  7.65625 3.25738125802311  C 7.65625 2.67971758664955  7.85416666666667 2.19833119383825  8.25 1.81322207958922  L 9.421875 0.609756097560976  C 9.81770833333333 0.203252032520324  10.2864583333333 0  10.828125 0  C 11.3802083333333 0  11.8541666666667 0.203252032520324  12.25 0.609756097560976  L 22.421875 11.0558408215661  Z " fill-rule="nonzero" fill="#000000" stroke="none" transform="matrix(1 0 0 1 1337 880 )" />
  </g>
</svg>