<?xml version="1.0" encoding="utf-8"?>
<svg version="1.1" xmlns:xlink="http://www.w3.org/1999/xlink" width="360px" height="42px" xmlns="http://www.w3.org/2000/svg">
  <g transform="matrix(1 0 0 1 -316 -393 )">
    <path d="M 317 398  A 4 4 0 0 1 321 394 L 671 394  A 4 4 0 0 1 675 398 L 675 430  A 4 4 0 0 1 671 434 L 321 434  A 4 4 0 0 1 317 430 L 317 398  Z " fill-rule="nonzero" fill="#ff001f" stroke="none" fill-opacity="0.996078431372549" />
    <path d="M 316.5 398  A 4.5 4.5 0 0 1 321 393.5 L 671 393.5  A 4.5 4.5 0 0 1 675.5 398 L 675.5 430  A 4.5 4.5 0 0 1 671 434.5 L 321 434.5  A 4.5 4.5 0 0 1 316.5 430 L 316.5 398  Z " stroke-width="1" stroke="#333333" fill="none" stroke-opacity="0.996078431372549" />
  </g>
</svg>