<?xml version="1.0" encoding="utf-8"?>
<svg version="1.1" xmlns:xlink="http://www.w3.org/1999/xlink" width="360px" height="42px" xmlns="http://www.w3.org/2000/svg">
  <g transform="matrix(1 0 0 1 -721 -393 )">
    <path d="M 722 398  A 4 4 0 0 1 726 394 L 1076 394  A 4 4 0 0 1 1080 398 L 1080 430  A 4 4 0 0 1 1076 434 L 726 434  A 4 4 0 0 1 722 430 L 722 398  Z " fill-rule="nonzero" fill="#ffffff" stroke="none" fill-opacity="0.996078431372549" />
    <path d="M 721.5 398  A 4.5 4.5 0 0 1 726 393.5 L 1076 393.5  A 4.5 4.5 0 0 1 1080.5 398 L 1080.5 430  A 4.5 4.5 0 0 1 1076 434.5 L 726 434.5  A 4.5 4.5 0 0 1 721.5 430 L 721.5 398  Z " stroke-width="1" stroke="#333333" fill="none" stroke-opacity="0.996078431372549" />
  </g>
</svg>